<?xml version="1.0" encoding="UTF-8"?>
<svg class="tottori-municipality-map" xmlns="http://www.w3.org/2000/svg" viewBox="0 0 1149.4 580.9" role="img" aria-label="鳥取県の市町村地図">
  <title>鳥取県市町村地図</title>
  <desc>国土数値情報 N03 行政区域データ 2024年版から生成。簡略化 tolerance=0.0015、取得日 2026-06-11。</desc>
  <g class="municipality is-active" data-lg-code="312011" data-jis-code="31201" data-name="鳥取市" data-council-id="tottori-city">
    <title>鳥取市</title>
    <path d="M717.1,310.3 L716.5,312.0 L723.7,318.5 L734.6,321.0 L740.0,318.8 L744.3,322.6 L751.5,323.0 L756.3,328.1 L761.6,328.4 L767.5,323.5 L774.2,329.3 L778.2,324.0 L785.5,323.8 L787.4,319.2 L796.7,320.9 L801.0,330.5 L810.0,338.1 L811.3,343.0 L820.6,346.4 L824.0,346.4 L826.5,343.4 L830.5,347.5 L831.0,345.1 L837.9,344.9 L837.7,348.7 L844.6,354.9 L871.3,347.2 L875.8,347.8 L878.3,345.9 L879.5,339.3 L886.3,337.2 L896.2,325.2 L899.3,329.2 L909.2,330.3 L910.9,328.2 L912.1,329.9 L916.5,328.3 L920.6,331.0 L923.8,329.4 L925.9,324.2 L934.6,321.1 L937.6,317.5 L936.4,314.1 L926.9,311.2 L924.2,299.2 L916.8,298.5 L911.3,282.0 L914.4,272.5 L908.1,265.7 L905.4,257.5 L907.7,247.7 L906.4,245.0 L909.3,239.8 L906.3,235.5 L895.6,229.0 L891.9,214.0 L904.4,211.1 L905.0,208.7 L911.3,205.4 L911.7,199.7 L916.7,196.8 L930.7,195.2 L933.2,186.5 L939.5,183.2 L940.6,177.6 L942.6,176.3 L947.3,184.1 L952.6,184.7 L959.1,181.5 L964.6,186.4 L971.7,187.4 L973.6,191.0 L982.6,196.9 L988.6,198.4 L995.1,196.3 L1001.6,202.1 L1013.1,200.6 L1024.7,195.0 L1026.9,186.5 L1030.6,190.9 L1043.1,186.0 L1055.8,192.7 L1061.6,190.5 L1066.1,191.7 L1076.5,186.8 L1074.4,165.4 L1071.3,162.7 L1071.3,155.0 L1066.1,146.6 L1065.3,140.4 L1054.3,136.8 L1049.7,139.8 L1045.3,138.3 L1038.1,126.1 L1032.9,128.5 L1031.2,126.4 L1024.0,126.2 L1020.4,134.1 L1015.0,136.9 L1010.8,143.3 L1004.6,144.6 L1002.8,148.7 L991.0,148.4 L984.7,141.4 L977.9,140.3 L976.9,135.4 L981.5,128.9 L980.8,124.1 L983.4,116.6 L980.5,113.6 L985.1,98.8 L984.1,93.1 L976.0,90.9 L975.4,88.2 L968.1,87.6 L966.6,79.4 L959.6,75.5 L957.7,65.0 L954.7,64.4 L950.8,58.7 L947.0,59.2 L943.5,53.9 L938.3,66.7 L905.3,80.2 L884.2,85.3 L877.9,85.8 L876.7,83.7 L877.7,85.8 L875.7,86.6 L873.2,79.5 L873.3,85.6 L869.7,83.2 L869.7,86.8 L875.6,89.4 L876.9,93.9 L869.2,87.6 L863.2,88.5 L863.1,86.4 L866.8,85.0 L862.1,86.4 L862.0,90.6 L848.7,94.4 L813.9,100.3 L806.8,99.4 L806.0,101.4 L798.8,99.6 L795.1,102.6 L788.9,100.4 L790.0,101.5 L788.6,102.4 L787.3,102.0 L788.3,100.6 L784.1,101.2 L782.3,104.6 L775.9,106.2 L744.5,108.1 L734.7,106.9 L733.8,103.0 L733.3,105.6 L732.4,103.3 L731.5,104.9 L733.0,102.7 L723.1,88.7 L716.4,96.5 L719.1,95.9 L717.4,97.3 L718.0,99.9 L712.9,103.4 L710.0,101.1 L708.3,103.7 L703.8,104.2 L702.7,101.1 L700.4,104.5 L688.5,103.7 L692.9,108.3 L693.4,114.1 L690.2,120.8 L681.2,129.2 L679.6,138.1 L680.9,140.6 L672.9,164.8 L674.5,171.4 L677.9,172.5 L679.1,175.8 L677.5,176.0 L674.0,185.3 L674.7,189.6 L677.5,190.6 L676.1,195.7 L677.4,198.6 L687.2,199.5 L693.2,204.5 L699.1,201.4 L703.1,201.5 L707.9,206.2 L713.5,203.6 L712.2,211.5 L717.6,220.0 L712.9,223.4 L709.6,230.2 L710.3,233.5 L716.5,237.4 L720.0,235.8 L730.7,239.7 L742.7,247.4 L751.4,249.1 L750.9,252.9 L744.1,260.3 L739.2,257.6 L736.7,258.2 L736.5,262.4 L732.4,262.9 L731.4,265.5 L733.1,270.6 L729.0,276.2 L729.9,280.5 L725.8,286.2 L729.6,292.5 L720.3,301.3 L717.1,310.3 L717.1,310.3 Z" fill-rule="evenodd"/>
    <path d="M865.1,79.6 L873.1,76.5 L864.9,79.6 L865.1,79.6 Z" fill-rule="evenodd"/>
    <path d="M732.7,101.6 L732.6,101.8 L733.2,101.8 L732.7,101.6 Z" fill-rule="evenodd"/>
    <path d="M692.7,102.7 L693.9,101.8 L692.6,102.6 L692.7,102.7 Z" fill-rule="evenodd"/>
    <path d="M872.3,80.2 L873.2,80.1 L873.2,80.0 L872.3,80.2 Z" fill-rule="evenodd"/>
    <path d="M866.5,84.9 L866.6,84.9 L866.6,84.2 L866.5,84.9 Z" fill-rule="evenodd"/>
    <path d="M789.4,98.4 L789.5,98.3 L788.8,98.1 L789.4,98.4 Z" fill-rule="evenodd"/>
  </g>
  <g class="municipality is-active" data-lg-code="312029" data-jis-code="31202" data-name="米子市" data-council-id="yonago-city">
    <title>米子市</title>
    <path d="M204.5,247.8 L211.6,245.4 L213.1,238.2 L218.3,243.1 L218.9,241.5 L216.2,240.2 L217.2,234.3 L219.7,233.5 L218.7,229.7 L225.7,231.9 L224.3,227.5 L227.6,221.8 L230.1,228.9 L239.8,237.1 L243.2,238.0 L251.9,234.9 L260.4,236.2 L264.5,234.2 L265.6,231.8 L261.6,212.0 L281.3,210.5 L283.5,203.8 L292.4,197.1 L293.1,189.6 L285.6,186.6 L279.9,178.8 L275.0,179.3 L275.7,174.9 L271.9,165.1 L261.8,164.1 L261.6,166.9 L255.2,167.0 L255.7,157.8 L251.4,156.7 L250.5,160.9 L246.4,162.3 L249.7,161.6 L250.1,163.7 L248.9,165.3 L248.4,163.5 L246.6,167.9 L229.1,173.8 L220.6,172.7 L219.7,180.8 L216.8,187.5 L214.5,188.0 L214.8,194.6 L208.8,196.0 L208.3,192.7 L207.0,194.5 L201.0,192.2 L206.3,170.3 L171.5,162.5 L152.1,155.0 L133.7,143.6 L115.6,125.6 L100.9,132.3 L86.2,149.4 L123.1,180.6 L146.5,190.3 L153.0,195.7 L163.5,218.9 L163.6,226.2 L162.1,227.3 L163.2,230.8 L158.4,234.6 L157.0,239.7 L161.4,243.1 L165.8,252.3 L169.4,251.9 L181.0,237.9 L184.6,241.3 L188.1,238.5 L188.1,241.6 L191.4,240.3 L194.8,245.6 L204.1,247.8 L204.5,247.8 Z" fill-rule="evenodd"/>
  </g>
  <g class="municipality is-active" data-lg-code="312037" data-jis-code="31203" data-name="倉吉市" data-council-id="kurayoshi-city">
    <title>倉吉市</title>
    <path d="M542.7,293.7 L552.5,289.6 L560.2,279.2 L570.0,278.1 L571.7,273.7 L577.6,271.0 L579.4,261.9 L581.9,259.4 L578.8,254.6 L580.1,249.1 L584.7,236.0 L587.9,234.6 L590.7,223.4 L595.3,218.5 L602.5,216.5 L608.4,204.8 L614.7,207.4 L625.1,203.1 L625.1,199.3 L620.0,194.0 L611.6,191.4 L609.1,185.9 L603.1,183.4 L605.0,167.5 L608.2,163.0 L607.5,154.8 L599.4,145.5 L598.3,150.1 L596.6,150.6 L591.8,148.2 L585.4,149.3 L582.6,148.3 L583.2,146.6 L576.3,145.2 L574.5,162.7 L571.0,163.2 L568.9,168.7 L562.2,167.3 L561.6,165.1 L557.0,166.0 L557.2,161.4 L551.0,156.7 L541.1,163.3 L534.0,154.7 L531.1,158.2 L525.4,159.1 L522.0,155.5 L514.3,160.6 L510.5,166.1 L513.7,172.4 L502.2,179.9 L497.5,185.8 L461.4,204.9 L444.3,207.9 L438.6,214.1 L439.3,215.7 L431.3,219.7 L427.6,224.3 L426.7,230.9 L420.3,241.9 L408.4,249.0 L400.3,250.1 L391.3,256.3 L371.2,260.7 L371.5,266.7 L374.6,267.6 L378.9,274.9 L385.5,275.3 L387.7,281.7 L395.2,285.6 L403.8,285.7 L408.7,289.9 L417.4,286.8 L431.1,290.4 L442.4,301.4 L451.1,303.3 L454.5,307.6 L465.0,306.4 L465.4,302.5 L470.0,299.4 L473.4,301.8 L479.5,301.5 L486.2,306.7 L492.3,306.9 L495.8,309.9 L500.8,310.6 L500.8,308.1 L502.9,307.6 L506.7,310.1 L508.9,307.0 L511.9,309.5 L513.4,315.1 L519.8,318.3 L523.0,315.5 L524.4,309.9 L531.9,305.7 L533.7,300.1 L539.1,300.9 L542.7,293.9 L542.7,293.7 Z" fill-rule="evenodd"/>
  </g>
  <g class="municipality is-active" data-lg-code="312045" data-jis-code="31204" data-name="境港市" data-council-id="sakaiminato-city">
    <title>境港市</title>
    <path d="M76.0,127.8 L82.7,146.4 L86.2,149.4 L100.9,132.3 L115.6,125.6 L107.9,111.6 L105.9,111.3 L108.7,112.1 L107.6,109.6 L116.2,105.7 L113.7,106.8 L109.8,98.3 L105.4,98.7 L104.9,96.5 L105.4,98.7 L102.1,98.9 L101.7,96.7 L103.4,96.2 L101.1,95.8 L102.7,94.9 L101.2,95.2 L100.7,91.5 L102.2,92.8 L102.8,91.0 L104.7,95.4 L103.3,93.1 L106.4,91.6 L105.4,89.4 L113.9,83.4 L117.7,76.0 L119.3,78.0 L122.9,74.2 L105.0,80.1 L102.7,78.6 L102.8,80.4 L100.7,77.5 L82.2,79.0 L65.1,91.3 L63.2,100.6 L76.0,127.7 L76.0,127.8 Z" fill-rule="evenodd"/>
    <path d="M116.3,99.2 L113.9,90.5 L125.2,77.9 L113.8,90.4 L116.3,99.2 L116.3,99.2 Z" fill-rule="evenodd"/>
  </g>
  <g class="municipality is-inactive" data-lg-code="313025" data-jis-code="31302" data-name="岩美町">
    <title>岩美町</title>
    <path d="M951.5,43.9 L955.1,42.0 L955.1,43.8 L959.3,45.3 L954.8,44.7 L959.0,46.4 L953.1,45.4 L954.7,46.8 L953.2,49.1 L950.5,47.2 L951.7,45.3 L950.1,47.5 L954.2,50.3 L953.3,52.2 L943.6,53.7 L945.1,57.6 L950.8,58.7 L954.7,64.4 L957.7,64.9 L959.6,75.5 L966.6,79.4 L968.1,87.6 L975.4,88.2 L976.0,90.9 L984.1,93.1 L985.1,98.8 L980.5,113.6 L983.4,116.6 L980.8,124.1 L981.5,128.9 L976.9,135.4 L977.9,140.3 L984.7,141.4 L991.0,148.4 L1002.8,148.7 L1004.6,144.6 L1010.8,143.3 L1015.0,136.9 L1020.4,134.1 L1024.0,126.2 L1031.2,126.4 L1032.9,128.5 L1037.8,126.0 L1046.1,138.6 L1050.2,139.7 L1054.3,136.8 L1064.4,139.3 L1066.1,146.6 L1068.4,148.2 L1067.9,151.0 L1071.3,155.8 L1074.3,150.5 L1065.6,130.2 L1068.4,124.1 L1065.8,117.9 L1063.2,117.8 L1058.4,112.5 L1053.6,111.7 L1059.8,99.2 L1059.6,93.4 L1062.2,92.0 L1064.1,84.7 L1060.3,81.8 L1063.7,74.6 L1060.9,63.8 L1051.4,63.8 L1049.7,61.5 L1047.3,56.0 L1049.0,49.4 L1047.9,41.9 L1050.0,37.5 L1047.5,36.8 L1044.2,31.2 L1037.6,28.4 L1037.5,25.1 L1028.4,23.3 L1020.0,18.0 L1018.7,12.0 L1019.6,20.6 L1015.7,24.6 L1002.0,25.8 L998.0,22.0 L999.7,20.6 L998.0,19.9 L1000.3,20.1 L998.7,17.5 L996.9,19.6 L994.1,18.3 L993.0,20.3 L994.9,24.0 L992.2,26.0 L994.9,28.5 L992.1,29.6 L992.2,32.8 L990.3,34.2 L980.9,36.0 L977.6,34.5 L977.0,31.7 L977.2,34.4 L974.8,32.3 L972.2,33.4 L976.9,31.1 L975.2,30.1 L970.2,34.8 L965.4,33.6 L963.2,34.7 L963.4,37.2 L956.6,37.2 L953.6,43.1 L951.1,44.0 L951.5,43.9 Z" fill-rule="evenodd"/>
    <path d="M976.0,29.5 L976.1,29.6 L977.0,29.1 L976.0,29.5 Z" fill-rule="evenodd"/>
  </g>
  <g class="municipality is-inactive" data-lg-code="313254" data-jis-code="31325" data-name="若桜町">
    <title>若桜町</title>
    <path d="M1027.7,376.7 L1030.5,377.5 L1037.9,374.0 L1044.5,380.5 L1045.5,385.6 L1061.9,389.4 L1065.5,394.9 L1072.0,397.4 L1082.2,388.7 L1095.0,389.8 L1093.6,382.6 L1101.5,377.3 L1106.4,377.1 L1113.7,363.8 L1116.7,365.2 L1120.8,359.7 L1137.4,349.3 L1132.4,332.6 L1134.3,321.3 L1136.9,318.9 L1127.6,308.1 L1126.4,300.0 L1128.5,289.4 L1132.8,283.5 L1133.2,275.7 L1136.1,273.0 L1128.2,266.8 L1127.2,260.6 L1115.8,258.7 L1110.8,253.5 L1104.3,252.0 L1101.5,246.8 L1103.9,240.4 L1103.5,235.3 L1108.9,223.4 L1109.7,216.1 L1105.8,212.2 L1107.1,205.5 L1105.1,203.0 L1108.4,201.6 L1108.5,199.4 L1102.0,196.7 L1100.2,193.1 L1097.0,193.4 L1094.4,189.8 L1085.9,190.1 L1077.0,183.4 L1076.5,186.7 L1081.8,194.4 L1079.6,203.2 L1080.5,207.6 L1079.1,214.1 L1074.5,218.4 L1071.0,230.3 L1064.6,235.4 L1049.6,238.7 L1048.3,242.0 L1041.5,246.6 L1036.5,246.6 L1033.7,249.4 L1036.7,254.1 L1032.9,263.3 L1035.3,271.6 L1032.8,271.4 L1032.6,273.5 L1025.4,265.1 L1022.8,265.5 L1023.2,284.0 L1014.4,289.0 L1009.0,289.3 L1011.7,295.0 L1010.2,306.7 L1006.0,313.0 L1007.3,314.6 L1005.8,319.3 L1009.8,321.0 L1011.0,326.4 L1018.1,331.6 L1023.5,330.4 L1028.2,332.6 L1029.8,334.7 L1028.7,340.3 L1033.1,347.7 L1031.4,365.3 L1033.2,367.2 L1032.7,370.9 L1027.7,376.6 L1027.7,376.7 Z" fill-rule="evenodd"/>
  </g>
  <g class="municipality is-inactive" data-lg-code="313289" data-jis-code="31328" data-name="智頭町">
    <title>智頭町</title>
    <path d="M828.9,387.8 L834.4,395.1 L846.0,392.0 L850.9,398.6 L848.8,403.4 L850.3,407.0 L843.3,419.5 L841.7,430.7 L852.0,439.3 L854.7,446.4 L853.6,454.8 L861.8,457.4 L872.0,450.5 L874.8,437.5 L897.9,436.1 L902.8,429.4 L920.7,425.9 L924.2,418.3 L929.4,415.6 L935.5,418.2 L937.6,425.2 L944.1,429.7 L960.8,424.7 L979.1,424.7 L990.2,413.4 L991.6,407.0 L1002.8,403.8 L1006.4,399.9 L1017.9,394.9 L1022.4,389.6 L1020.9,381.2 L1027.2,379.0 L1027.6,375.5 L1032.7,370.9 L1033.2,367.2 L1031.4,365.3 L1033.1,348.0 L1028.7,340.3 L1029.8,334.7 L1028.0,332.5 L1023.5,330.4 L1018.1,331.6 L1011.0,326.4 L1009.8,321.0 L1006.1,319.4 L993.7,319.8 L977.9,312.5 L975.8,314.8 L968.1,312.6 L965.2,316.3 L954.4,317.1 L952.2,323.0 L948.2,324.5 L941.0,323.3 L937.6,317.6 L934.6,321.1 L925.9,324.2 L923.8,329.4 L920.6,331.0 L916.5,328.3 L912.1,329.9 L910.9,328.2 L909.2,330.3 L899.3,329.2 L896.2,325.2 L886.3,337.2 L879.5,339.3 L878.3,345.9 L875.8,347.8 L871.3,347.2 L844.6,354.9 L837.7,348.7 L838.0,345.0 L831.0,345.1 L832.2,351.9 L829.6,353.8 L829.3,357.2 L839.8,368.6 L833.6,375.9 L835.6,383.6 L828.9,387.7 L828.9,387.8 Z" fill-rule="evenodd"/>
  </g>
  <g class="municipality is-inactive" data-lg-code="313297" data-jis-code="31329" data-name="八頭町">
    <title>八頭町</title>
    <path d="M1010.8,293.3 L1009.2,289.1 L1014.4,289.0 L1023.2,284.0 L1022.8,265.5 L1025.4,265.1 L1032.6,273.5 L1032.8,271.4 L1035.3,271.6 L1032.9,263.3 L1036.7,254.1 L1033.8,249.2 L1036.6,246.6 L1041.5,246.6 L1048.3,242.0 L1049.6,238.7 L1064.6,235.4 L1071.0,230.3 L1074.5,218.4 L1079.3,213.7 L1081.1,191.7 L1076.5,186.7 L1066.1,191.7 L1061.6,190.5 L1055.8,192.7 L1043.1,186.0 L1030.6,190.9 L1026.9,186.5 L1024.7,195.0 L1013.1,200.6 L1001.6,202.1 L995.1,196.3 L988.6,198.4 L982.6,196.9 L973.6,191.0 L971.7,187.4 L964.6,186.4 L959.1,181.5 L952.6,184.7 L947.3,184.1 L942.6,176.3 L940.6,177.6 L939.5,183.2 L933.2,186.5 L930.7,195.2 L916.7,196.8 L911.7,199.7 L911.3,205.4 L905.0,208.7 L904.4,211.1 L891.8,214.1 L895.6,229.0 L906.3,235.5 L909.3,239.8 L906.4,245.0 L907.7,247.7 L905.4,257.5 L908.1,265.7 L914.4,272.5 L911.3,282.0 L916.8,298.5 L924.2,299.2 L926.9,311.2 L936.6,314.3 L941.0,323.3 L952.1,323.1 L954.3,317.1 L965.2,316.3 L968.1,312.6 L975.8,314.8 L977.9,312.5 L993.7,319.8 L1005.8,319.3 L1007.3,314.6 L1006.0,313.0 L1010.2,306.6 L1010.9,293.5 L1010.8,293.3 Z" fill-rule="evenodd"/>
  </g>
  <g class="municipality is-inactive" data-lg-code="313645" data-jis-code="31364" data-name="三朝町">
    <title>三朝町</title>
    <path d="M582.3,376.8 L585.5,375.4 L590.1,377.1 L589.5,372.9 L597.3,360.7 L607.6,354.3 L605.5,349.5 L607.9,341.7 L603.5,339.7 L604.5,334.1 L611.2,334.2 L616.3,331.3 L620.2,332.6 L622.6,330.6 L624.0,332.3 L633.8,322.3 L640.7,321.6 L642.0,319.4 L655.9,319.7 L661.4,310.3 L658.2,302.1 L663.2,291.5 L672.3,294.0 L679.2,288.4 L680.8,284.6 L692.2,278.8 L700.4,283.2 L710.8,278.4 L715.0,273.7 L727.4,277.2 L732.8,271.5 L731.4,265.5 L732.4,262.9 L736.7,262.2 L736.7,258.2 L740.2,257.6 L743.8,260.5 L750.9,252.9 L751.4,249.1 L742.7,247.4 L730.7,239.7 L720.0,235.8 L716.5,237.4 L710.3,233.5 L709.6,230.2 L712.9,223.4 L717.6,220.0 L712.2,211.5 L713.3,203.5 L707.9,206.2 L703.1,201.5 L699.1,201.4 L693.2,204.5 L688.1,199.9 L677.9,198.9 L671.1,194.9 L652.8,199.9 L642.8,198.0 L634.1,204.4 L622.2,203.1 L614.7,207.4 L608.4,204.8 L602.5,216.5 L595.3,218.5 L590.7,223.4 L587.8,234.7 L584.7,236.0 L578.8,254.5 L581.9,259.4 L579.4,261.9 L577.5,271.1 L571.7,273.7 L570.0,278.1 L560.0,279.3 L552.4,289.7 L542.7,292.4 L539.1,300.9 L533.7,300.1 L531.9,305.7 L524.4,309.9 L523.1,314.5 L523.8,317.4 L526.9,318.0 L534.0,327.0 L539.4,328.7 L540.4,331.8 L545.4,329.0 L545.3,333.1 L553.8,333.9 L552.9,336.8 L555.0,341.9 L561.3,349.7 L559.9,356.2 L566.2,361.7 L568.6,367.3 L568.5,373.9 L581.7,377.3 L582.3,376.8 Z" fill-rule="evenodd"/>
  </g>
  <g class="municipality is-inactive" data-lg-code="313700" data-jis-code="31370" data-name="湯梨浜町">
    <title>湯梨浜町</title>
    <path d="M618.9,193.6 L625.1,199.3 L625.1,203.1 L632.3,204.6 L642.9,197.9 L652.8,199.9 L671.1,194.9 L677.3,198.4 L676.1,195.7 L677.5,190.6 L674.7,189.6 L674.0,185.3 L677.5,176.0 L679.1,175.8 L677.9,172.5 L674.5,171.4 L672.9,164.8 L680.9,140.6 L679.6,138.1 L681.2,129.2 L691.7,118.5 L693.0,108.6 L685.0,101.0 L682.2,108.2 L667.6,108.1 L665.9,109.5 L667.8,110.0 L667.0,111.6 L666.4,110.0 L665.2,112.4 L665.3,110.0 L662.5,114.5 L656.0,116.6 L637.7,116.1 L633.0,119.2 L625.4,117.5 L621.9,119.5 L616.0,118.0 L615.1,120.0 L615.5,117.3 L614.2,120.6 L599.1,122.1 L596.2,135.2 L597.3,136.7 L591.8,148.2 L598.3,150.1 L599.4,145.5 L606.6,153.1 L608.2,163.0 L605.0,167.5 L603.0,183.2 L609.1,185.9 L611.6,191.4 L618.7,193.7 L618.9,193.6 Z" fill-rule="evenodd"/>
    <path d="M662.7,109.6 L663.9,111.3 L662.8,107.8 L662.7,109.6 Z" fill-rule="evenodd"/>
  </g>
  <g class="municipality is-inactive" data-lg-code="313718" data-jis-code="31371" data-name="琴浦町">
    <title>琴浦町</title>
    <path d="M357.8,255.6 L357.1,262.9 L363.5,265.3 L367.7,271.5 L371.5,266.7 L371.3,260.6 L391.3,256.3 L400.3,250.1 L408.4,249.0 L420.3,241.9 L430.0,221.0 L439.3,215.7 L438.6,214.1 L444.4,207.8 L447.7,207.2 L449.9,202.5 L461.8,194.8 L472.5,181.3 L481.2,176.4 L483.9,171.3 L491.7,164.6 L492.8,160.5 L487.0,149.1 L490.1,131.2 L488.3,130.9 L489.3,128.0 L486.4,122.6 L476.2,118.2 L446.7,120.0 L440.7,117.7 L441.6,115.0 L438.7,114.7 L441.5,115.1 L440.9,117.0 L437.2,117.5 L436.0,114.6 L438.2,114.6 L431.8,110.9 L431.4,112.7 L417.7,107.1 L397.3,104.4 L395.0,107.7 L396.0,109.6 L389.2,115.2 L393.2,122.1 L388.6,152.1 L390.6,168.0 L388.9,167.9 L389.5,177.4 L381.9,186.5 L377.2,199.3 L374.9,196.9 L370.0,196.8 L377.3,218.0 L377.4,224.5 L375.0,230.4 L376.4,238.4 L371.5,244.3 L373.1,247.6 L358.7,245.5 L357.8,255.4 L357.8,255.6 Z" fill-rule="evenodd"/>
    <path d="M437.3,113.7 L439.3,112.4 L437.3,113.6 L437.3,113.7 Z" fill-rule="evenodd"/>
    <path d="M441.9,114.0 L442.0,113.9 L440.5,112.5 L441.9,114.0 Z" fill-rule="evenodd"/>
    <path d="M439.1,109.7 L439.7,109.7 L439.8,109.5 L439.1,109.7 Z" fill-rule="evenodd"/>
  </g>
  <g class="municipality is-inactive" data-lg-code="313726" data-jis-code="31372" data-name="北栄町">
    <title>北栄町</title>
    <path d="M513.4,171.3 L510.5,166.2 L514.3,160.6 L522.0,155.5 L525.3,159.1 L531.1,158.2 L533.6,154.5 L540.8,163.3 L551.0,156.7 L557.2,161.4 L557.0,166.0 L561.6,165.1 L562.2,167.3 L569.0,168.6 L571.0,163.2 L574.5,162.7 L576.3,145.2 L583.2,146.6 L582.6,148.3 L585.4,149.3 L591.8,148.2 L594.6,144.8 L599.1,122.1 L538.1,126.0 L486.4,122.6 L489.3,128.0 L488.3,130.9 L490.1,131.2 L487.0,149.1 L492.6,159.7 L491.7,164.6 L483.9,171.3 L481.2,176.4 L472.5,181.3 L461.8,194.8 L449.9,202.5 L448.2,206.4 L461.4,204.9 L480.0,193.8 L486.4,192.8 L513.5,171.5 L513.4,171.3 Z" fill-rule="evenodd"/>
  </g>
  <g class="municipality is-inactive" data-lg-code="313840" data-jis-code="31384" data-name="日吉津村">
    <title>日吉津村</title>
    <path d="M208.6,194.7 L211.0,196.6 L214.8,194.6 L214.5,188.0 L216.8,187.5 L219.7,180.8 L220.6,172.8 L206.3,170.3 L201.0,192.2 L208.3,193.3 L208.6,194.7 Z" fill-rule="evenodd"/>
  </g>
  <g class="municipality is-inactive" data-lg-code="313866" data-jis-code="31386" data-name="大山町">
    <title>大山町</title>
    <path d="M309.6,227.4 L322.4,230.4 L321.8,233.4 L328.3,239.6 L326.0,241.8 L329.3,243.7 L326.3,256.6 L330.4,265.5 L343.8,277.0 L346.0,273.9 L345.8,276.5 L349.3,280.6 L352.2,270.4 L354.8,270.0 L357.1,263.3 L358.7,245.5 L373.1,247.6 L371.5,244.3 L376.4,238.4 L375.0,230.4 L377.4,218.7 L370.0,196.8 L374.9,196.9 L377.2,199.3 L381.9,186.5 L389.5,177.4 L388.9,167.9 L390.6,168.0 L388.6,152.1 L393.2,122.1 L389.2,115.2 L396.0,109.6 L395.0,107.7 L397.3,104.4 L386.0,99.9 L383.4,95.3 L385.4,95.4 L382.9,94.6 L361.1,96.0 L362.9,96.8 L355.3,102.2 L347.0,105.1 L342.7,105.4 L338.5,102.6 L333.9,107.1 L325.2,105.7 L321.5,109.1 L306.9,110.9 L303.6,112.4 L305.4,114.1 L301.3,118.3 L286.4,127.7 L276.7,127.8 L266.1,131.7 L262.3,139.2 L252.8,146.2 L255.7,147.6 L251.4,155.9 L255.7,157.8 L255.2,167.0 L261.6,166.9 L261.8,164.1 L271.9,165.1 L275.7,174.9 L275.0,179.3 L279.9,178.8 L285.6,186.6 L293.2,189.8 L292.4,197.1 L283.5,203.8 L281.3,210.5 L261.6,212.0 L264.7,228.8 L268.0,230.2 L284.9,227.5 L290.4,229.2 L301.5,226.5 L309.0,227.4 L309.6,227.4 Z" fill-rule="evenodd"/>
    <path d="M360.5,95.6 L360.4,96.5 L360.5,96.5 L360.5,95.6 Z" fill-rule="evenodd"/>
  </g>
  <g class="municipality is-inactive" data-lg-code="313891" data-jis-code="31389" data-name="南部町">
    <title>南部町</title>
    <path d="M173.0,386.3 L175.4,392.1 L177.6,391.8 L178.7,394.4 L181.5,393.8 L183.9,388.4 L188.3,390.3 L192.0,387.6 L191.4,381.4 L195.1,379.4 L188.7,369.1 L194.5,363.2 L214.5,355.2 L216.3,351.7 L212.4,335.8 L215.2,331.7 L210.8,320.2 L214.4,312.0 L214.1,304.0 L221.0,304.9 L225.1,301.8 L226.4,304.6 L234.2,306.4 L237.3,302.4 L234.1,294.6 L241.2,291.6 L242.6,287.3 L250.0,281.5 L249.8,277.2 L245.4,272.8 L238.6,274.5 L235.9,270.3 L233.1,272.3 L230.9,269.5 L230.6,264.1 L228.3,263.5 L228.8,260.2 L223.2,258.0 L220.6,252.2 L213.0,254.4 L207.2,252.6 L205.4,247.8 L194.8,245.6 L191.4,240.3 L188.1,241.6 L188.1,238.5 L184.6,241.3 L181.0,237.9 L169.4,251.9 L161.0,253.2 L161.6,257.6 L158.9,261.1 L152.1,260.8 L141.9,279.8 L143.6,288.4 L142.4,298.9 L144.7,301.5 L139.8,307.6 L147.8,321.1 L151.6,323.2 L145.5,334.9 L151.9,344.9 L153.9,357.8 L162.2,363.0 L168.3,363.8 L172.2,369.1 L173.4,377.3 L170.5,381.7 L173.0,386.1 L173.0,386.3 Z" fill-rule="evenodd"/>
  </g>
  <g class="municipality is-inactive" data-lg-code="313904" data-jis-code="31390" data-name="伯耆町">
    <title>伯耆町</title>
    <path d="M207.6,385.0 L211.4,391.7 L225.4,388.5 L227.3,382.6 L236.3,375.2 L237.6,371.9 L247.0,368.7 L251.9,361.3 L263.9,356.0 L267.8,346.9 L265.9,337.5 L263.2,335.4 L264.3,330.2 L268.6,325.6 L275.6,323.9 L279.4,317.3 L289.4,312.8 L292.5,306.6 L296.6,304.0 L315.6,299.4 L314.0,297.8 L314.8,294.6 L320.5,292.1 L316.0,292.1 L321.0,283.7 L320.3,281.8 L324.5,279.5 L324.9,274.5 L331.5,266.9 L326.3,256.6 L329.3,243.7 L326.0,241.8 L327.9,238.5 L321.8,233.4 L322.4,230.4 L309.7,227.2 L301.5,226.5 L290.4,229.2 L284.9,227.5 L268.0,230.2 L264.7,228.8 L264.9,233.7 L260.4,236.2 L251.9,234.9 L243.2,238.0 L232.8,232.1 L227.6,221.8 L224.3,227.5 L225.7,231.9 L218.7,229.7 L219.7,233.5 L217.2,234.3 L216.2,240.2 L218.9,241.5 L218.3,243.1 L213.1,238.2 L211.6,245.4 L205.4,247.8 L206.7,252.2 L212.8,254.3 L220.7,252.3 L223.2,258.0 L228.8,260.2 L228.3,263.5 L230.6,264.1 L230.9,269.5 L233.0,272.1 L235.9,270.3 L239.5,274.7 L245.4,272.8 L249.8,277.2 L250.2,280.6 L242.6,287.3 L240.0,292.7 L234.1,294.6 L237.3,302.4 L234.2,306.4 L226.4,304.6 L225.1,301.8 L221.0,304.9 L214.1,304.0 L214.4,312.0 L210.8,320.2 L215.2,331.7 L212.4,335.8 L216.3,351.7 L214.5,355.2 L199.7,360.5 L193.3,365.6 L196.5,372.3 L203.0,374.1 L202.5,378.3 L206.9,381.1 L207.6,384.9 L207.6,385.0 Z" fill-rule="evenodd"/>
  </g>
  <g class="municipality is-inactive" data-lg-code="314013" data-jis-code="31401" data-name="日南町">
    <title>日南町</title>
    <path d="M109.3,555.5 L113.9,563.1 L120.7,568.9 L127.1,560.5 L133.0,561.2 L136.7,558.0 L138.5,555.3 L136.5,551.3 L138.3,543.7 L135.9,532.2 L138.5,526.2 L145.0,522.7 L148.2,527.0 L152.7,527.1 L154.4,530.4 L156.5,528.4 L161.7,532.7 L166.7,533.1 L177.2,520.0 L184.2,520.8 L190.6,525.8 L200.3,516.4 L209.7,512.1 L217.6,513.8 L230.2,512.3 L237.1,505.4 L237.8,493.1 L236.6,487.8 L231.4,483.3 L225.9,461.8 L221.9,458.9 L225.0,454.1 L223.1,449.3 L214.5,452.3 L209.6,449.5 L207.0,450.9 L201.4,466.7 L199.1,467.8 L194.3,464.7 L192.3,459.8 L189.3,459.2 L181.6,463.9 L174.3,460.8 L169.6,449.9 L153.0,442.1 L149.9,437.0 L146.0,437.0 L142.4,433.5 L140.8,423.5 L148.7,413.5 L151.8,415.5 L151.5,423.0 L155.4,423.9 L160.1,420.1 L168.2,419.8 L174.2,411.5 L186.9,411.9 L189.9,406.9 L189.8,402.1 L187.9,400.1 L188.1,389.6 L183.7,388.5 L181.0,394.2 L175.4,392.1 L170.5,381.9 L173.4,377.3 L172.2,369.1 L168.3,363.8 L161.6,362.7 L155.8,357.5 L148.0,363.5 L142.3,362.4 L139.1,365.8 L131.3,364.2 L126.0,368.7 L116.6,368.2 L112.1,365.2 L107.8,366.6 L99.7,376.2 L90.6,380.0 L82.8,377.5 L74.1,384.9 L69.5,384.5 L58.1,390.6 L49.3,392.1 L41.2,397.6 L41.7,399.3 L25.7,407.5 L24.7,413.8 L26.3,416.8 L24.4,419.7 L25.8,422.8 L30.1,422.6 L31.5,420.0 L38.9,417.2 L49.6,425.2 L51.8,431.2 L49.7,438.4 L55.6,442.0 L59.2,449.2 L60.1,456.8 L57.7,463.9 L51.2,469.9 L40.3,473.1 L36.5,477.5 L29.6,477.7 L27.5,482.7 L22.3,486.6 L19.6,495.3 L20.8,503.0 L15.5,508.5 L19.9,521.2 L15.2,526.6 L16.2,529.1 L12.6,535.9 L13.3,541.5 L17.2,545.4 L15.0,547.3 L16.5,550.3 L12.4,552.3 L12.3,557.0 L17.1,561.9 L32.5,552.4 L38.1,559.0 L42.5,557.3 L46.6,559.4 L73.2,552.4 L88.8,558.6 L91.6,556.7 L90.7,549.2 L96.3,547.0 L105.9,548.2 L109.2,555.3 L109.3,555.5 Z" fill-rule="evenodd"/>
  </g>
  <g class="municipality is-inactive" data-lg-code="314021" data-jis-code="31402" data-name="日野町">
    <title>日野町</title>
    <path d="M204.3,460.4 L207.0,450.8 L209.6,449.5 L214.5,452.3 L221.3,450.6 L224.5,445.8 L228.8,445.2 L233.5,440.7 L240.4,442.0 L244.6,445.8 L245.6,450.5 L250.6,449.2 L266.3,455.3 L273.6,453.5 L276.4,448.7 L282.1,451.4 L286.3,449.6 L288.3,444.7 L294.8,444.2 L297.2,440.2 L300.7,438.9 L305.8,439.9 L310.0,433.8 L315.5,433.5 L318.7,436.9 L322.1,435.8 L324.7,443.7 L330.3,443.7 L332.8,439.4 L330.4,436.1 L330.9,432.7 L327.8,430.1 L326.7,416.2 L321.8,406.3 L318.3,405.1 L313.7,399.1 L315.6,393.6 L313.7,390.5 L305.3,386.8 L298.8,394.3 L294.6,393.3 L284.4,396.6 L281.1,383.6 L284.1,381.3 L282.9,377.8 L277.1,369.0 L272.5,372.1 L264.1,360.1 L263.9,356.0 L251.9,361.3 L247.0,368.7 L237.6,371.9 L236.3,375.2 L227.3,382.6 L227.1,386.7 L220.7,390.4 L211.3,391.6 L207.6,386.5 L206.9,381.1 L202.5,378.3 L203.0,374.1 L196.5,372.3 L194.5,366.9 L191.1,366.1 L188.8,369.5 L195.1,379.4 L191.5,381.4 L192.6,386.5 L187.9,391.0 L187.9,400.1 L190.0,405.9 L187.2,411.6 L174.2,411.5 L168.2,419.8 L160.1,420.1 L155.4,423.9 L151.5,423.0 L151.8,415.5 L149.0,413.4 L143.2,419.4 L140.5,427.9 L145.9,436.9 L149.9,436.9 L153.0,442.1 L169.6,449.9 L174.4,460.9 L182.4,463.9 L189.0,459.3 L192.2,459.7 L194.3,464.7 L199.1,467.8 L202.8,465.8 L204.4,460.7 L204.3,460.4 Z" fill-rule="evenodd"/>
  </g>
  <g class="municipality is-inactive" data-lg-code="314030" data-jis-code="31403" data-name="江府町">
    <title>江府町</title>
    <path d="M308.5,389.5 L313.7,390.5 L315.6,393.6 L320.9,391.1 L322.9,385.8 L337.5,389.9 L344.9,383.4 L353.8,384.8 L358.6,379.8 L360.0,372.2 L364.6,369.7 L363.6,360.3 L367.7,354.0 L365.1,349.5 L368.0,345.4 L366.5,339.7 L369.0,337.9 L372.3,329.3 L370.8,326.2 L371.7,312.2 L375.4,309.7 L376.4,305.4 L384.4,296.0 L381.1,289.6 L386.2,285.8 L387.7,281.7 L385.5,275.3 L378.9,274.9 L374.6,267.6 L371.4,266.6 L367.0,271.3 L363.5,265.3 L357.1,262.9 L354.8,270.0 L352.2,270.4 L349.3,280.6 L345.8,276.5 L346.0,273.9 L343.8,277.0 L339.2,271.2 L331.5,266.9 L324.9,274.5 L324.5,279.5 L320.3,281.8 L321.0,283.7 L316.0,292.1 L320.5,292.1 L314.8,294.6 L314.0,297.8 L315.6,299.4 L296.6,304.0 L292.5,306.6 L289.4,312.8 L279.4,317.3 L275.6,323.9 L268.6,325.6 L264.3,330.2 L263.2,335.4 L265.9,337.5 L267.8,346.9 L264.2,353.2 L264.0,359.9 L272.5,372.1 L277.1,369.0 L282.9,377.7 L284.1,381.3 L281.1,383.6 L283.4,395.3 L284.7,396.8 L294.6,393.3 L298.8,394.3 L305.3,386.8 L308.3,389.4 L308.5,389.5 Z" fill-rule="evenodd"/>
  </g>
</svg>
